<svg width="25" height="15" viewBox="0 0 25 15" fill="none" xmlns="http://www.w3.org/2000/svg">
<path d="M24.868 11.1404L23.1922 4.01833C22.7069 1.95572 20.8334 0.126953 18.2798 0.126953H6.62265C3.92966 0.126953 2.16136 2.09973 1.71008 4.01833L0.03447 11.1404C-0.421005 13.0761 1.04918 14.9284 3.03511 14.9284C3.88007 14.9284 4.67486 14.4782 5.10917 13.7538L6.40006 11.6025C6.62074 11.2344 7.02453 11.0059 7.45368 11.0059H17.4488C17.8779 11.0059 18.2815 11.2344 18.5024 11.6027L19.7929 13.7536C20.2274 14.4782 21.0222 14.9284 21.8681 14.9284C23.8563 14.9284 25.3227 13.0727 24.868 11.1404ZM21.8671 13.4635C21.5339 13.4635 21.2204 13.286 21.0489 13L19.7584 10.8491C19.2747 10.0423 18.3897 9.54106 17.4488 9.54106H7.45368C6.51278 9.54106 5.62777 10.0423 5.14407 10.8489L3.85318 13.0002C3.6819 13.286 3.36833 13.4635 3.03416 13.4635C1.99294 13.4635 1.22141 12.4906 1.46021 11.4759L3.13582 4.35383C3.51844 2.72762 4.95219 1.5918 6.62265 1.5918H18.2798C19.9501 1.5918 21.384 2.72762 21.7664 4.35383L23.4422 11.4759C23.6807 12.49 22.9107 13.4635 21.8671 13.4635Z" fill="#636363"/>
</svg>
