<svg width="18" height="18" viewBox="0 0 18 18" fill="none" xmlns="http://www.w3.org/2000/svg">
<path d="M4.06456 2.03228C4.06456 3.15468 3.15468 4.06456 2.03228 4.06456C0.909883 4.06456 0 3.15468 0 2.03228C0 0.909883 0.909883 0 2.03228 0C3.15468 0 4.06456 0.909883 4.06456 2.03228Z" fill="#989898"/>
<path d="M4.06456 9.00011C4.06456 10.1225 3.15468 11.0324 2.03228 11.0324C0.909883 11.0324 0 10.1225 0 9.00011C0 7.87771 0.909883 6.96783 2.03228 6.96783C3.15468 6.96783 4.06456 7.87771 4.06456 9.00011Z" fill="#989898"/>
<path d="M4.06456 15.9679C4.06456 17.0903 3.15468 18.0001 2.03228 18.0001C0.909883 18.0001 0 17.0903 0 15.9679C0 14.8455 0.909883 13.9356 2.03228 13.9356C3.15468 13.9356 4.06456 14.8455 4.06456 15.9679Z" fill="#989898"/>
<path d="M11.0325 2.03228C11.0325 3.15468 10.1227 4.06456 9.00026 4.06456C7.87787 4.06456 6.96798 3.15468 6.96798 2.03228C6.96798 0.909883 7.87787 0 9.00026 0C10.1227 0 11.0325 0.909883 11.0325 2.03228Z" fill="#989898"/>
<path d="M11.0325 9.00011C11.0325 10.1225 10.1227 11.0324 9.00026 11.0324C7.87787 11.0324 6.96798 10.1225 6.96798 9.00011C6.96798 7.87771 7.87787 6.96783 9.00026 6.96783C10.1227 6.96783 11.0325 7.87771 11.0325 9.00011Z" fill="#989898"/>
<path d="M11.0325 15.9679C11.0325 17.0903 10.1227 18.0001 9.00026 18.0001C7.87787 18.0001 6.96798 17.0903 6.96798 15.9679C6.96798 14.8455 7.87787 13.9356 9.00026 13.9356C10.1227 13.9356 11.0325 14.8455 11.0325 15.9679Z" fill="#989898"/>
<path d="M17.9999 2.03228C17.9999 3.15468 17.09 4.06456 15.9676 4.06456C14.8452 4.06456 13.9354 3.15468 13.9354 2.03228C13.9354 0.909883 14.8452 0 15.9676 0C17.09 0 17.9999 0.909883 17.9999 2.03228Z" fill="#989898"/>
<path d="M17.9999 9.00011C17.9999 10.1225 17.09 11.0324 15.9676 11.0324C14.8452 11.0324 13.9354 10.1225 13.9354 9.00011C13.9354 7.87771 14.8452 6.96783 15.9676 6.96783C17.09 6.96783 17.9999 7.87771 17.9999 9.00011Z" fill="#989898"/>
<path d="M17.9999 15.9679C17.9999 17.0903 17.09 18.0001 15.9676 18.0001C14.8452 18.0001 13.9354 17.0903 13.9354 15.9679C13.9354 14.8455 14.8452 13.9356 15.9676 13.9356C17.09 13.9356 17.9999 14.8455 17.9999 15.9679Z" fill="#989898"/>
</svg>
