<svg width="25" height="23" viewBox="0 0 25 23" fill="none" xmlns="http://www.w3.org/2000/svg">
<path d="M20.1751 0C19.3796 0 5.70317 0 4.82627 0L0 6.58124L11.7518 22.07C12.153 22.5988 12.9485 22.5972 13.3476 22.0668L25 6.57934L20.1751 0ZM6.86187 7.30426L10.3982 17.8692L2.38226 7.30426H6.86187ZM8.40243 7.30426H16.6033L12.531 19.6386L8.40243 7.30426ZM18.1417 7.30426H22.6265L14.6349 17.926L18.1417 7.30426ZM19.4347 1.46085L22.6486 5.84341H18.1427L16.7047 1.46085H19.4347ZM15.1672 1.46085L16.6052 5.84341H8.3961L9.83412 1.46085H15.1672ZM5.56653 1.46085H8.29657L6.85855 5.84341H2.35265L5.56653 1.46085Z" fill="#0BFFD3"/>
</svg>
