<svg width="21" height="25" viewBox="0 0 21 25" fill="none" xmlns="http://www.w3.org/2000/svg">
<path d="M20.0215 10.3516C17.0869 10.3516 14.328 11.4943 12.253 13.5694C11.5626 14.2597 10.9762 15.026 10.5 15.849V13.2812H9.03516V5.89194C9.03516 3.54844 7.77114 1.37031 5.73643 0.207617L5.37305 0L5.00967 0.207617C2.97495 1.37031 1.71094 3.54844 1.71094 5.89194V13.2812H0.246094V25H10.5V22.0457C13.1588 21.8718 15.6346 20.7539 17.5361 18.8525C19.6111 16.7775 20.7539 14.0186 20.7539 11.084V10.3516H20.0215ZM5.37305 1.70811C6.73818 2.65029 7.57031 4.21665 7.57031 5.89194V9.61914H3.17578V5.89194C3.17578 4.21665 4.00791 2.65029 5.37305 1.70811ZM3.17578 11.084H7.57031V13.2812H3.17578V11.084ZM9.03516 14.7461V16.2109H1.71094V14.7461H9.03516ZM9.03516 23.5352H1.71094V17.6758H9.03516V23.5352ZM10.5302 20.5752C10.9 15.9318 14.6154 12.2164 19.2588 11.8467C18.8891 16.49 15.1736 20.2055 10.5302 20.5752Z" fill="#FF6915"/>
</svg>
