<svg width="25" height="15" viewBox="0 0 25 15" fill="none" xmlns="http://www.w3.org/2000/svg">
<path d="M22.3622 1.19767L21.9991 0.834473L13.8318 4.65587L2.06129 5.38295C0.905427 5.45406 0 6.4174 0 7.57605C0 8.73469 0.905427 9.69804 2.06114 9.76919L13.8318 10.4963L21.9991 14.3176L22.3622 13.9544C25.8793 10.4374 25.8793 4.71472 22.3622 1.19767ZM13.2835 8.9945L11.8184 8.90401V6.24809L13.2835 6.15759V8.9945ZM1.46509 7.57605C1.46509 7.18995 1.76651 6.86895 2.15144 6.84521L10.3533 6.33858V8.81351L2.15129 8.30684C1.76651 8.28315 1.46509 7.96215 1.46509 7.57605ZM21.6732 12.5476L14.7486 9.30769V5.84441L21.6732 2.60445C24.1562 5.44224 24.1562 9.70991 21.6732 12.5476Z" fill="#F87979"/>
</svg>
