<svg width="25" height="15" viewBox="0 0 25 15" fill="none" xmlns="http://www.w3.org/2000/svg">
<path d="M24.4882 6.82646L16.9323 0.821777L14.291 2.58267L15.1035 3.80151L16.8567 2.63271L20.4061 5.45337C19.9991 5.41265 19.5615 5.38931 19.0918 5.38931C15.1714 5.38931 13.5155 7.0001 13.447 7.0687L13.2324 7.28325V7.58662C13.2324 7.99048 12.9039 8.31904 12.5 8.31904C12.0961 8.31904 11.7676 7.99048 11.7676 7.58662V7.27617L11.5445 7.0603C11.474 6.99209 9.77285 5.38936 5.85938 5.38936C5.41025 5.38936 4.99116 5.41069 4.60044 5.44824L8.14331 2.63271L9.89648 3.80151L10.709 2.58267L8.06768 0.821777L0.56709 6.78247C0.273682 6.9918 0.195557 7.08931 0 7.28325V7.58662C0 9.41348 0.355029 10.9935 1.05522 12.2828C1.69028 13.4521 2.92148 14.1784 4.26841 14.1784H7.49888C8.8458 14.1784 10.0771 13.452 10.7121 12.2827C11.1414 11.4923 11.4403 10.5924 11.6079 9.5939C11.8807 9.71563 12.1824 9.78389 12.5 9.78389C12.8176 9.78389 13.1193 9.71563 13.3921 9.5939C13.5597 10.5924 13.8586 11.4923 14.2879 12.2827C14.923 13.452 16.1543 14.1784 17.5012 14.1784H20.7316C22.0785 14.1784 23.3098 13.4521 23.9448 12.2828C24.645 10.9934 25 9.41338 25 7.58662V7.27617C24.787 7.07139 24.7303 7.00205 24.4882 6.82646ZM9.4249 11.5835C9.04634 12.2805 8.3083 12.7136 7.49888 12.7136H4.26841C3.45898 12.7136 2.721 12.2806 2.34248 11.5836C1.80376 10.5917 1.51069 9.3665 1.46978 7.93779C1.97373 7.59326 3.34775 6.8542 5.85933 6.8542C8.37588 6.8542 9.779 7.59629 10.2976 7.94346C10.2561 9.36948 9.96299 10.5927 9.4249 11.5835ZM22.6575 11.5836C22.279 12.2806 21.541 12.7136 20.7315 12.7136H17.5011C16.6917 12.7136 15.9537 12.2806 15.5751 11.5835C15.0363 10.5914 14.7432 9.36626 14.7022 7.93779C15.2062 7.59326 16.5802 6.8542 19.0918 6.8542C21.6083 6.8542 23.0115 7.59629 23.53 7.94346C23.4885 9.36968 23.1955 10.593 22.6575 11.5836Z" fill="#694309"/>
</svg>
