<svg width="21" height="19" viewBox="0 0 21 19" fill="none" xmlns="http://www.w3.org/2000/svg">
<path d="M17.7918 16.8334H3.2085V17.8751C3.2085 18.1514 3.09875 18.4163 2.9034 18.6117C2.70805 18.807 2.4431 18.9167 2.16683 18.9167H1.12516C0.848896 18.9167 0.583944 18.807 0.388593 18.6117C0.193243 18.4163 0.0834961 18.1514 0.0834961 17.8751V7.45842L2.66683 1.42925C2.82758 1.05425 3.09491 0.734705 3.43564 0.510269C3.77636 0.285834 4.17549 0.166386 4.5835 0.166749H16.4168C16.8245 0.166794 17.2232 0.286432 17.5635 0.510843C17.9038 0.735254 18.1708 1.05458 18.3314 1.42925L20.9168 7.45842V17.8751C20.9168 18.1514 20.8071 18.4163 20.6117 18.6117C20.4164 18.807 20.1514 18.9167 19.8752 18.9167H18.8335C18.5572 18.9167 18.2923 18.807 18.0969 18.6117C17.9016 18.4163 17.7918 18.1514 17.7918 17.8751V16.8334ZM18.8335 9.54175H2.16683V14.7501H18.8335V9.54175ZM2.35016 7.45842H18.6502L16.4179 2.25008H4.5835L2.3512 7.45842H2.35016ZM4.771 13.7084C4.3566 13.7084 3.95917 13.5438 3.66614 13.2508C3.37312 12.9577 3.2085 12.5603 3.2085 12.1459C3.2085 11.7315 3.37312 11.3341 3.66614 11.0411C3.95917 10.748 4.3566 10.5834 4.771 10.5834C5.1854 10.5834 5.58282 10.748 5.87585 11.0411C6.16888 11.3341 6.3335 11.7315 6.3335 12.1459C6.3335 12.5603 6.16888 12.9577 5.87585 13.2508C5.58282 13.5438 5.1854 13.7084 4.771 13.7084ZM16.2293 13.7084C15.8149 13.7084 15.4175 13.5438 15.1245 13.2508C14.8314 12.9577 14.6668 12.5603 14.6668 12.1459C14.6668 11.7315 14.8314 11.3341 15.1245 11.0411C15.4175 10.748 15.8149 10.5834 16.2293 10.5834C16.6437 10.5834 17.0412 10.748 17.3342 11.0411C17.6272 11.3341 17.7918 11.7315 17.7918 12.1459C17.7918 12.5603 17.6272 12.9577 17.3342 13.2508C17.0412 13.5438 16.6437 13.7084 16.2293 13.7084Z" fill="#0047FF"/>
</svg>
