<svg width="25" height="25" viewBox="0 0 25 25" fill="none" xmlns="http://www.w3.org/2000/svg">
<path d="M21.582 10.8398H18.4736C19.0226 9.85603 19.3359 8.72383 19.3359 7.51953C19.3359 6.94447 19.2648 6.37722 19.1242 5.82619C20.0014 5.24673 20.5566 4.25034 20.5566 3.17383C20.5566 1.42384 19.1328 0 17.3828 0C16.4284 0 15.5449 0.422669 14.9494 1.13564C14.1705 0.835419 13.3493 0.683594 12.5 0.683594C11.6507 0.683594 10.8295 0.835419 10.0506 1.13564C9.45511 0.422669 8.57162 0 7.61719 0C5.8672 0 4.44336 1.42384 4.44336 3.17383C4.44336 4.25034 4.99859 5.24673 5.87578 5.82619C5.73521 6.37722 5.66406 6.94447 5.66406 7.51953C5.66406 8.72383 5.97744 9.85603 6.52637 10.8398H3.41797C1.66798 10.8398 0.244141 12.2637 0.244141 14.0137C0.244141 15.7637 1.66798 17.1875 3.41797 17.1875H4.93164V18.8517C4.32606 19.5051 3.95508 20.3789 3.95508 21.3379C3.95508 23.3572 5.59788 25 7.61719 25H17.3828C19.4021 25 21.0449 23.3572 21.0449 21.3379C21.0449 20.3789 20.6739 19.5051 20.0684 18.8517V17.1875H21.582C23.332 17.1875 24.7559 15.7637 24.7559 14.0137C24.7559 12.2637 23.332 10.8398 21.582 10.8398ZM5.9082 3.17383C5.9082 2.23141 6.67477 1.46484 7.61719 1.46484C8.25787 1.46484 8.83961 1.81904 9.13525 2.38914C9.31911 2.74391 9.7538 2.88563 10.1116 2.70767C10.8576 2.33669 11.6611 2.14844 12.5 2.14844C13.3389 2.14844 14.1424 2.33669 14.8884 2.70767C15.2462 2.88582 15.6809 2.74391 15.8648 2.38914C16.1604 1.81904 16.7421 1.46484 17.3828 1.46484C18.3252 1.46484 19.0918 2.23141 19.0918 3.17383C19.0918 3.88012 18.6478 4.52271 17.9869 4.77257C17.6132 4.91409 17.4217 5.32894 17.5568 5.70507C17.7654 6.28624 17.8711 6.89678 17.8711 7.51953C17.8711 10.2327 15.8487 12.4821 13.2324 12.8405V11.1948L13.8041 10.9091C14.1659 10.7281 14.3126 10.2882 14.1315 9.92641C13.9507 9.56459 13.5109 9.41792 13.1491 9.59892L12.5 9.92336L11.8509 9.59873C11.4893 9.41792 11.0493 9.56459 10.8685 9.92622C10.6874 10.288 10.8341 10.7281 11.1959 10.9089L11.7676 11.1948V12.8405C9.15127 12.4821 7.12891 10.2327 7.12891 7.51953C7.12891 6.89678 7.23457 6.28624 7.44324 5.70507C7.57828 5.32894 7.38678 4.91409 7.01294 4.77257C6.35223 4.52271 5.9082 3.88012 5.9082 3.17383ZM5.41992 21.3379C5.41992 20.1263 6.40564 19.1406 7.61719 19.1406C8.82874 19.1406 9.81445 20.1263 9.81445 21.3379C9.81445 22.5494 8.82874 23.5352 7.61719 23.5352C6.40564 23.5352 5.41992 22.5494 5.41992 21.3379ZM17.3828 23.5352C16.1713 23.5352 15.1855 22.5494 15.1855 21.3379C15.1855 20.1263 16.1713 19.1406 17.3828 19.1406C18.5944 19.1406 19.5801 20.1263 19.5801 21.3379C19.5801 22.5494 18.5944 23.5352 17.3828 23.5352ZM21.582 15.7227H19.3359C18.9314 15.7227 18.6035 16.0505 18.6035 16.4551V17.8858C18.2215 17.7502 17.8108 17.6758 17.3828 17.6758C15.3635 17.6758 13.7207 19.3186 13.7207 21.3379C13.7207 22.1617 13.9942 22.9227 14.455 23.5352H10.545C11.0058 22.9227 11.2793 22.1617 11.2793 21.3379C11.2793 19.3186 9.6365 17.6758 7.61719 17.6758C7.18918 17.6758 6.77853 17.7502 6.39648 17.8858V16.4551C6.39648 16.0505 6.06861 15.7227 5.66406 15.7227H3.41797C2.47555 15.7227 1.70898 14.9561 1.70898 14.0137C1.70898 13.0713 2.47555 12.3047 3.41797 12.3047H7.62329C8.86459 13.5695 10.5921 14.3555 12.5 14.3555C14.4079 14.3555 16.1354 13.5695 17.3767 12.3047H21.582C22.5245 12.3047 23.291 13.0713 23.291 14.0137C23.291 14.9561 22.5245 15.7227 21.582 15.7227Z" fill="#D62EDA"/>
</svg>
