<svg width="25" height="25" viewBox="0 0 25 25" fill="none" xmlns="http://www.w3.org/2000/svg">
<path d="M7.36094 24.998C6.46392 24.998 5.56694 24.6566 4.88403 23.9736C4.11094 23.2006 3.76592 22.1476 3.87583 21.1238C2.8521 21.2336 1.79902 20.8887 1.02598 20.1156C0.364355 19.454 0 18.5743 0 17.6387C0 16.703 0.364355 15.8234 1.02598 15.1617C2.29917 13.8885 4.3168 13.8022 5.69097 14.9029L14.9032 5.69073C14.4062 5.07174 14.1362 4.30787 14.1362 3.5025C14.1362 2.56686 14.5005 1.68717 15.1622 1.02555C16.5279 -0.340173 18.7501 -0.340271 20.116 1.02555C20.889 1.7986 21.2341 2.85162 21.1242 3.8754C22.1481 3.76578 23.201 4.11056 23.974 4.88361C24.6356 5.54523 25 6.42491 25 7.36056C25 8.2962 24.6356 9.17589 23.974 9.83751C22.7008 11.1107 20.6832 11.197 19.309 10.0963L10.0968 19.3086C10.5938 19.9276 10.8638 20.6914 10.8638 21.4967C10.8638 22.4324 10.4995 23.3121 9.83784 23.9737C9.15498 24.6566 8.25796 24.998 7.36094 24.998ZM5.09185 19.1752C5.28071 19.1752 5.46826 19.2479 5.61001 19.3897C5.86157 19.6413 5.89595 20.0373 5.6915 20.3285C5.12236 21.1391 5.21841 22.2365 5.91982 22.9379C6.7144 23.7324 8.00737 23.7324 8.80205 22.9379C9.59668 22.1433 9.59668 20.8503 8.80205 20.0557C8.39814 19.748 8.13882 19.1894 8.55796 18.7758L18.7761 8.55763C19.1965 8.13785 19.7424 8.39576 20.0562 8.80187C20.8506 9.59635 22.1436 9.59635 22.9382 8.80172C23.3231 8.41676 23.5352 7.90499 23.5352 7.36056C23.5352 6.81622 23.3231 6.30441 22.9382 5.91945C22.2369 5.21808 21.1394 5.12203 20.3288 5.69108C20.0376 5.89552 19.6416 5.8611 19.39 5.60953C19.1385 5.35797 19.1041 4.96193 19.3085 4.67076C19.8777 3.86017 19.7816 2.76276 19.0802 2.06134C18.2856 1.26671 16.9926 1.26676 16.198 2.06134C15.4034 2.85597 15.4034 4.14894 16.198 4.94357C16.602 5.25133 16.8612 5.80973 16.4421 6.22345L6.22388 16.4417C5.80352 16.8614 5.25757 16.6035 4.94385 16.1974C4.14937 15.4029 2.85645 15.4029 2.06177 16.1976C1.67686 16.5825 1.46484 17.0943 1.46484 17.6387C1.46484 18.183 1.67686 18.6948 2.06177 19.0798C2.76318 19.7812 3.86064 19.8772 4.67119 19.3082C4.79834 19.2189 4.94551 19.1752 5.09185 19.1752Z" fill="#00D27A"/>
</svg>
