<svg width="21" height="21" viewBox="0 0 21 21" fill="none" xmlns="http://www.w3.org/2000/svg">
<path d="M10.5002 18.8333H18.8335V20.9166H10.5002C4.74704 20.9166 0.0834961 16.253 0.0834961 10.4999C0.0834961 4.74679 4.74704 0.083252 10.5002 0.083252C16.2533 0.083252 20.9168 4.74679 20.9168 10.4999C20.9202 12.7543 20.1888 14.9484 18.8335 16.7499H16.0127C17.4754 15.4599 18.4394 13.6976 18.7367 11.7701C19.0339 9.84249 18.6457 7.87171 17.6395 6.20091C16.6334 4.53012 15.0731 3.26516 13.2303 2.62631C11.3875 1.98747 9.37906 2.01521 7.55465 2.70471C5.73023 3.39421 4.20545 4.70178 3.24583 6.39973C2.28621 8.09768 1.95254 10.0784 2.30294 11.9971C2.65333 13.9157 3.66558 15.6506 5.16343 16.8998C6.66127 18.1489 8.5498 18.8331 10.5002 18.8333ZM10.5002 8.41658C9.94763 8.41658 9.41772 8.19709 9.02702 7.80639C8.63632 7.41569 8.41683 6.88579 8.41683 6.33325C8.41683 5.78072 8.63632 5.25081 9.02702 4.86011C9.41772 4.46941 9.94763 4.24992 10.5002 4.24992C11.0527 4.24992 11.5826 4.46941 11.9733 4.86011C12.364 5.25081 12.5835 5.78072 12.5835 6.33325C12.5835 6.88579 12.364 7.41569 11.9733 7.80639C11.5826 8.19709 11.0527 8.41658 10.5002 8.41658ZM6.3335 12.5833C5.78096 12.5833 5.25106 12.3638 4.86036 11.9731C4.46966 11.5824 4.25016 11.0525 4.25016 10.4999C4.25016 9.94738 4.46966 9.41748 4.86036 9.02678C5.25106 8.63608 5.78096 8.41658 6.3335 8.41658C6.88603 8.41658 7.41593 8.63608 7.80663 9.02678C8.19734 9.41748 8.41683 9.94738 8.41683 10.4999C8.41683 11.0525 8.19734 11.5824 7.80663 11.9731C7.41593 12.3638 6.88603 12.5833 6.3335 12.5833ZM14.6668 12.5833C14.1143 12.5833 13.5844 12.3638 13.1937 11.9731C12.803 11.5824 12.5835 11.0525 12.5835 10.4999C12.5835 9.94738 12.803 9.41748 13.1937 9.02678C13.5844 8.63608 14.1143 8.41658 14.6668 8.41658C15.2194 8.41658 15.7493 8.63608 16.14 9.02678C16.5307 9.41748 16.7502 9.94738 16.7502 10.4999C16.7502 11.0525 16.5307 11.5824 16.14 11.9731C15.7493 12.3638 15.2194 12.5833 14.6668 12.5833ZM10.5002 16.7499C9.94763 16.7499 9.41772 16.5304 9.02702 16.1397C8.63632 15.749 8.41683 15.2191 8.41683 14.6666C8.41683 14.114 8.63632 13.5841 9.02702 13.1934C9.41772 12.8027 9.94763 12.5833 10.5002 12.5833C11.0527 12.5833 11.5826 12.8027 11.9733 13.1934C12.364 13.5841 12.5835 14.114 12.5835 14.6666C12.5835 15.2191 12.364 15.749 11.9733 16.1397C11.5826 16.5304 11.0527 16.7499 10.5002 16.7499Z" fill="#FF6B00"/>
</svg>
