<svg width="23" height="21" viewBox="0 0 23 21" fill="none" xmlns="http://www.w3.org/2000/svg">
<path d="M4.729 20.8751C4.11343 20.8751 3.50389 20.7538 2.93518 20.5183C2.36646 20.2827 1.84972 19.9374 1.41444 19.5021C0.979166 19.0669 0.633888 18.5501 0.398319 17.9814C0.16275 17.4127 0.0415039 16.8032 0.0415039 16.1876C0.0415039 15.572 0.16275 14.9625 0.398319 14.3938C0.633888 13.825 0.979166 13.3083 1.41444 12.873C1.84972 12.4377 2.36646 12.0925 2.93518 11.8569C3.50389 11.6213 4.11343 11.5001 4.729 11.5001C5.97221 11.5001 7.16449 11.9939 8.04357 12.873C8.92264 13.7521 9.4165 14.9444 9.4165 16.1876C9.4165 17.4308 8.92264 18.6231 8.04357 19.5021C7.16449 20.3812 5.97221 20.8751 4.729 20.8751ZM4.729 18.7917C5.41967 18.7917 6.08205 18.5174 6.57043 18.029C7.0588 17.5406 7.33317 16.8782 7.33317 16.1876C7.33317 15.4969 7.0588 14.8345 6.57043 14.3462C6.08205 13.8578 5.41967 13.5834 4.729 13.5834C4.03834 13.5834 3.37596 13.8578 2.88758 14.3462C2.3992 14.8345 2.12484 15.4969 2.12484 16.1876C2.12484 16.8782 2.3992 17.5406 2.88758 18.029C3.37596 18.5174 4.03834 18.7917 4.729 18.7917ZM18.2707 20.8751C17.6551 20.8751 17.0456 20.7538 16.4768 20.5183C15.9081 20.2827 15.3914 19.9374 14.9561 19.5021C14.5208 19.0669 14.1756 18.5501 13.94 17.9814C13.7044 17.4127 13.5832 16.8032 13.5832 16.1876C13.5832 15.572 13.7044 14.9625 13.94 14.3938C14.1756 13.825 14.5208 13.3083 14.9561 12.873C15.3914 12.4377 15.9081 12.0925 16.4768 11.8569C17.0456 11.6213 17.6551 11.5001 18.2707 11.5001C19.5139 11.5001 20.7062 11.9939 21.5852 12.873C22.4643 13.7521 22.9582 14.9444 22.9582 16.1876C22.9582 17.4308 22.4643 18.6231 21.5852 19.5021C20.7062 20.3812 19.5139 20.8751 18.2707 20.8751ZM18.2707 18.7917C18.9613 18.7917 19.6237 18.5174 20.1121 18.029C20.6005 17.5406 20.8748 16.8782 20.8748 16.1876C20.8748 15.4969 20.6005 14.8345 20.1121 14.3462C19.6237 13.8578 18.9613 13.5834 18.2707 13.5834C17.58 13.5834 16.9176 13.8578 16.4292 14.3462C15.9409 14.8345 15.6665 15.4969 15.6665 16.1876C15.6665 16.8782 15.9409 17.5406 16.4292 18.029C16.9176 18.5174 17.58 18.7917 18.2707 18.7917ZM10.4821 9.73446L12.5415 11.5001V17.7501H10.4582V12.5417L7.62588 10.1813C7.37384 10.0081 7.16302 9.78156 7.0084 9.51771C6.85377 9.25386 6.75913 8.95921 6.73119 8.65467C6.70325 8.35013 6.7427 8.04318 6.84674 7.7556C6.95078 7.46802 7.11685 7.20688 7.33317 6.99071L10.279 4.04487C10.4725 3.85133 10.7022 3.6978 10.955 3.59305C11.2078 3.4883 11.4788 3.43438 11.7524 3.43438C12.0261 3.43438 12.2971 3.4883 12.5499 3.59305C12.8027 3.6978 13.0324 3.85133 13.2259 4.04487L14.6988 5.51779C15.8019 6.62489 17.2329 7.34642 18.779 7.57508L18.7686 9.67404C16.6708 9.43254 14.7169 8.48698 13.2259 6.99175L10.4821 9.73446ZM15.6665 4.20841C15.114 4.20841 14.5841 3.98892 14.1934 3.59822C13.8027 3.20752 13.5832 2.67762 13.5832 2.12508C13.5832 1.57255 13.8027 1.04264 14.1934 0.651942C14.5841 0.261241 15.114 0.041748 15.6665 0.041748C16.219 0.041748 16.7489 0.261241 17.1396 0.651942C17.5303 1.04264 17.7498 1.57255 17.7498 2.12508C17.7498 2.67762 17.5303 3.20752 17.1396 3.59822C16.7489 3.98892 16.219 4.20841 15.6665 4.20841Z" fill="#0085FF"/>
</svg>
