<svg width="25" height="17" viewBox="0 0 25 17" fill="none" xmlns="http://www.w3.org/2000/svg">
<path d="M24.4698 9.65089C24.3891 9.60055 22.6673 8.5403 20.4896 8.18518C20.8353 6.01907 20.376 4.06498 20.3467 3.94432L20.1994 3.33729L19.5767 3.38603C19.4827 3.39335 17.5015 3.55946 15.5544 4.54354C14.5625 2.61503 13.0692 1.32451 12.9755 1.24477L12.5 0.839844L12.0244 1.24477C11.9307 1.32451 10.4374 2.61513 9.44552 4.54354C7.49836 3.55951 5.51717 3.3934 5.42322 3.38603L4.80047 3.33729L4.65316 3.94432C4.62386 4.06498 4.16453 6.01907 4.51033 8.18518C2.33256 8.5403 0.610837 9.60055 0.530125 9.65089L0 9.98136L0.241796 10.5573C0.313475 10.728 2.03735 14.7518 5.51839 15.8588C6.19358 16.0735 6.878 16.1605 7.54411 16.1605C9.64034 16.1604 11.5532 15.299 12.4135 14.8465L12.5 14.92L12.5863 14.8465C13.4466 15.2991 15.3594 16.1605 17.4558 16.1604C18.1218 16.1604 18.8065 16.0734 19.4815 15.8587C22.9626 14.7517 24.6864 10.7279 24.7581 10.5572L24.9999 9.98131L24.4698 9.65089ZM5.96296 14.4608C3.84403 13.7869 2.45683 11.6338 1.88769 10.5806C2.52543 10.2639 3.6244 9.79742 4.86409 9.61466C5.07112 10.2125 5.35852 10.7998 5.75242 11.343C6.9094 12.9387 8.71168 13.7818 10.1552 14.2223C8.96915 14.6258 7.41027 14.9211 5.96296 14.4608ZM6.94006 10.4819C5.63528 8.68239 5.79656 6.12732 5.96365 4.94149C6.65622 5.06449 7.79592 5.33626 8.88341 5.90442C8.6901 6.52586 8.57135 7.1887 8.57135 7.88C8.57135 9.83429 9.51935 11.5621 10.4226 12.7649C9.23341 12.3819 7.81989 11.6955 6.94006 10.4819ZM12.4989 12.9396C11.6671 12.0802 10.0383 10.1124 10.0383 7.88C10.0384 5.65643 11.6698 3.68197 12.5009 2.82045C13.3328 3.67977 14.9615 5.64759 14.9615 7.88C14.9615 10.1035 13.3301 12.078 12.4989 12.9396ZM16.4285 7.87995C16.4285 7.18865 16.3097 6.52581 16.1165 5.90437C17.2048 5.33577 18.3455 5.06395 19.0377 4.94115C19.2067 6.12498 19.3703 8.67448 18.0598 10.4819C17.18 11.6955 15.7663 12.382 14.5773 12.7649C15.4806 11.5621 16.4285 9.83429 16.4285 7.87995ZM19.0369 14.4608C17.5966 14.9188 16.0377 14.6236 14.8498 14.2208C16.2925 13.7798 18.0919 12.9369 19.2475 11.343C19.6413 10.7999 19.9286 10.2127 20.1357 9.61491C21.3712 9.79786 22.4735 10.2655 23.1129 10.5822C22.5462 11.6354 21.1645 13.7842 19.0369 14.4608Z" fill="#F2A0FF"/>
</svg>
