<svg width="19" height="25" viewBox="0 0 19 25" fill="none" xmlns="http://www.w3.org/2000/svg">
<path d="M3.64062 20.8155V24.2676C3.64062 24.6721 3.96855 25 4.37305 25H13.1621C13.5666 25 13.8945 24.6721 13.8945 24.2676V20.8155C13.8945 19.6372 14.3057 18.4552 15.0226 17.5728C16.0297 16.3331 16.6443 14.8142 16.7901 13.2324H17.5566C17.9611 13.2324 18.2891 12.9045 18.2891 12.5C18.2891 12.0955 17.9611 11.7676 17.5566 11.7676H16.7901C16.6442 10.1858 16.0297 8.66694 15.0227 7.42725C14.3057 6.54482 13.8945 5.36289 13.8945 4.18447V0.732422C13.8945 0.32793 13.5666 0 13.1621 0H4.37305C3.96855 0 3.64062 0.32793 3.64062 0.732422V4.18447C3.64062 5.36284 3.22944 6.54482 2.5126 7.42725C1.35078 8.85728 0.710938 10.6588 0.710938 12.5C0.710938 14.3412 1.35078 16.1427 2.51255 17.5728C3.22944 18.4552 3.64062 19.6371 3.64062 20.8155ZM5.10547 23.5352V22.0703H12.4297V23.5352H5.10547ZM12.4297 1.46484V2.92969H5.10547V1.46484H12.4297ZM3.64951 8.35088C3.64956 8.35088 3.64956 8.35088 3.64951 8.35088C4.54536 7.2481 5.05684 5.85039 5.10186 4.39453H12.4333C12.4783 5.85044 12.9898 7.24819 13.8856 8.35093C14.836 9.5207 15.3594 10.9942 15.3594 12.5C15.3594 14.0059 14.836 15.4793 13.8856 16.6491C12.9898 17.7519 12.4783 19.1496 12.4333 20.6055H5.10186C5.05684 19.1496 4.54536 17.7518 3.64951 16.6491C2.69917 15.4793 2.17578 14.0058 2.17578 12.5C2.17578 10.9941 2.69917 9.52065 3.64951 8.35088Z" fill="#FF5170"/>
</svg>
