<svg width="25" height="25" viewBox="0 0 25 25" fill="none" xmlns="http://www.w3.org/2000/svg">
<path d="M25 11.1328C25 10.5168 24.7487 9.93667 24.2924 9.49922C23.8475 9.0728 23.2664 8.83789 22.6562 8.83789H4.63867V4.77637C4.63867 4.04922 4.89531 3.36865 5.36118 2.86021C5.81084 2.36973 6.40395 2.09961 7.03125 2.09961C8.18018 2.09961 9.04624 2.75415 9.32671 3.75977H8.98438C8.57988 3.75977 8.25195 4.0877 8.25195 4.49219C8.25195 4.89668 8.57988 5.22461 8.98438 5.22461H11.3281C11.7326 5.22461 12.0605 4.89668 12.0605 4.49219C12.0605 4.0877 11.7326 3.75977 11.3281 3.75977H10.825C10.6853 2.95937 10.3161 2.24346 9.74971 1.69668C9.04033 1.01191 8.0749 0.634766 7.03125 0.634766C5.98848 0.634766 5.01191 1.07354 4.2813 1.87051C3.56714 2.64995 3.17383 3.68193 3.17383 4.77637V8.83789H2.34375C1.73359 8.83789 1.15254 9.0728 0.707617 9.49922C0.25127 9.93667 0 10.5168 0 11.1328C0 11.7488 0.25127 12.329 0.707617 12.7664C0.969043 13.0169 1.27764 13.2008 1.61133 13.3103V17.6298C1.61133 19.7469 2.90122 21.5683 4.73633 22.3497V23.6328C4.73633 24.0373 5.06426 24.3652 5.46875 24.3652C5.87324 24.3652 6.20117 24.0373 6.20117 23.6328V22.7287C6.37773 22.7471 6.55688 22.7567 6.73828 22.7567H18.2617C18.4431 22.7567 18.6223 22.7471 18.7988 22.7287V23.6328C18.7988 24.0373 19.1268 24.3652 19.5312 24.3652C19.9357 24.3652 20.2637 24.0373 20.2637 23.6328V22.3497C22.0988 21.5683 23.3887 19.7469 23.3887 17.6298V13.3103C23.7224 13.2008 24.031 13.017 24.2924 12.7664C24.7487 12.329 25 11.7488 25 11.1328ZM21.9238 17.6298C21.9238 19.6491 20.281 21.2919 18.2617 21.2919H6.73828C4.71899 21.2919 3.07617 19.6491 3.07617 17.6298V13.4277H21.9238V17.6298ZM22.6562 11.9629H2.34375C1.87554 11.9629 1.46484 11.575 1.46484 11.1328C1.46484 10.6906 1.87554 10.3027 2.34375 10.3027H22.6562C23.1245 10.3027 23.5352 10.6906 23.5352 11.1328C23.5352 11.575 23.1245 11.9629 22.6562 11.9629Z" fill="#5C3CDC"/>
</svg>
