<svg width="23" height="21" viewBox="0 0 23 21" fill="none" xmlns="http://www.w3.org/2000/svg">
<path d="M18.7915 20.8748H4.20817C3.9319 20.8748 3.66695 20.765 3.4716 20.5697C3.27625 20.3743 3.1665 20.1094 3.1665 19.8331V10.4581H0.0415039L10.7988 0.678921C10.9906 0.504418 11.2405 0.407715 11.4998 0.407715C11.7591 0.407715 12.0091 0.504418 12.2009 0.678921L22.9582 10.4581H19.8332V19.8331C19.8332 20.1094 19.7234 20.3743 19.5281 20.5697C19.3327 20.765 19.0678 20.8748 18.7915 20.8748ZM5.24984 18.7914H17.7498V8.5383L11.4998 2.85705L5.24984 8.5383V18.7914ZM8.37484 9.41642H14.6248V15.6664H8.37484V9.41642ZM10.4582 11.4998V13.5831H12.5415V11.4998H10.4582Z" fill="#FFDB80"/>
</svg>
