<svg width="25" height="21" viewBox="0 0 25 21" fill="none" xmlns="http://www.w3.org/2000/svg">
<path d="M24.0385 14.346H23.0327C22.6241 9.83359 19.3699 6.13042 15.0834 5.05034C15.2758 4.66406 15.3846 4.2292 15.3846 3.76914C15.3846 2.17856 14.0906 0.884521 12.5 0.884521C10.9094 0.884521 9.61538 2.17856 9.61538 3.76914C9.61538 4.2292 9.72417 4.66406 9.91655 5.05034C5.63008 6.13042 2.37583 9.83359 1.96733 14.346H0.961523C0.430518 14.346 0 14.7766 0 15.3076C0 15.8387 0.430518 16.2691 0.961523 16.2691H1.92305V19.1538C1.92305 19.6848 2.35356 20.1153 2.88457 20.1153H22.1153C22.6463 20.1153 23.0769 19.6848 23.0769 19.1538V16.2691H24.0384C24.5694 16.2691 24.9999 15.8386 24.9999 15.3076C24.9999 14.7766 24.5695 14.346 24.0385 14.346ZM12.5 2.80762C13.0302 2.80762 13.4615 3.23896 13.4615 3.76914C13.4615 4.29932 13.0302 4.73066 12.5 4.73066C11.9698 4.73066 11.5385 4.29932 11.5385 3.76914C11.5385 3.23896 11.9698 2.80762 12.5 2.80762ZM12.5 6.65376C16.9467 6.65376 20.6208 10.0252 21.1008 14.346H3.89922C4.3791 10.0252 8.05327 6.65376 12.5 6.65376ZM21.1539 18.1922H3.84614V16.2691H21.1539V18.1922Z" fill="#27AE60"/>
</svg>
