<svg width="20" height="22" viewBox="0 0 20 22" fill="none" xmlns="http://www.w3.org/2000/svg">
<path d="M17.2039 0H1.82774C0.823617 0 0.00683594 0.854004 0.00683594 1.90388V20.0961C0.00683594 21.146 0.823617 22 1.82774 22H17.2039C18.208 22 19.0248 21.146 19.0248 20.0961V1.90388C19.0248 0.854004 18.208 0 17.2039 0V0ZM1.22077 1.90388C1.22077 1.55392 1.49303 1.26926 1.82774 1.26926H17.2039C17.5386 1.26926 17.8108 1.55392 17.8108 1.90388V4.44223H1.22077V1.90388ZM17.8108 20.0961C17.8108 20.4461 17.5386 20.7307 17.2039 20.7307H1.82774C1.49303 20.7307 1.22077 20.4461 1.22077 20.0961V5.71149H17.8108V20.0961Z" fill="#56ADFD"/>
</svg>
