<svg width="25" height="25" viewBox="0 0 25 25" fill="none" xmlns="http://www.w3.org/2000/svg">
<g clip-path="url(#clip0_1914_710)">
<path d="M9.31327 9.83388H8.4767V8.99731C8.4767 8.59277 8.14864 8.26489 7.74428 8.26489C7.33973 8.26489 7.01186 8.59277 7.01186 8.99731V9.83388H6.17529C5.77074 9.83388 5.44287 10.1618 5.44287 10.5663C5.44287 10.9708 5.77074 11.2987 6.17529 11.2987H7.01186V12.1353C7.01186 12.5398 7.33973 12.8677 7.74428 12.8677C8.14864 12.8677 8.4767 12.5398 8.4767 12.1353V11.2987H9.31327C9.71782 11.2987 10.0457 10.9708 10.0457 10.5663C10.0457 10.1618 9.71782 9.83388 9.31327 9.83388Z" fill="#636363"/>
<path d="M17.8906 8.99731C17.8906 9.40186 17.5626 9.72974 17.1582 9.72974C16.7537 9.72974 16.4258 9.40186 16.4258 8.99731C16.4258 8.59277 16.7537 8.26489 17.1582 8.26489C17.5626 8.26489 17.8906 8.59277 17.8906 8.99731Z" fill="#636363"/>
<path d="M16.3218 10.5664C16.3218 10.971 15.9937 11.2988 15.5894 11.2988C15.1848 11.2988 14.8569 10.971 14.8569 10.5664C14.8569 10.1619 15.1848 9.83398 15.5894 9.83398C15.9937 9.83398 16.3218 10.1619 16.3218 10.5664Z" fill="#636363"/>
<path d="M17.8906 12.1353C17.8906 12.5398 17.5626 12.8677 17.1582 12.8677C16.7537 12.8677 16.4258 12.5398 16.4258 12.1353C16.4258 11.7309 16.7537 11.4028 17.1582 11.4028C17.5626 11.4028 17.8906 11.7309 17.8906 12.1353Z" fill="#636363"/>
<path d="M19.4595 10.5664C19.4595 10.971 19.1314 11.2988 18.7271 11.2988C18.3225 11.2988 17.9946 10.971 17.9946 10.5664C17.9946 10.1619 18.3225 9.83398 18.7271 9.83398C19.1314 9.83398 19.4595 10.1619 19.4595 10.5664Z" fill="#636363"/>
<path d="M24.868 16.1404L23.1922 9.01833C22.7069 6.95572 20.8334 5.12695 18.2798 5.12695H6.62265C3.92966 5.12695 2.16136 7.09973 1.71008 9.01833L0.03447 16.1404C-0.421005 18.0761 1.04918 19.9284 3.03511 19.9284C3.88007 19.9284 4.67486 19.4782 5.10917 18.7538L6.40006 16.6025C6.62074 16.2344 7.02453 16.0059 7.45368 16.0059H17.4488C17.8779 16.0059 18.2815 16.2344 18.5024 16.6027L19.7929 18.7536C20.2274 19.4782 21.0222 19.9284 21.8681 19.9284C23.8563 19.9284 25.3227 18.0727 24.868 16.1404V16.1404ZM21.8671 18.4635C21.5339 18.4635 21.2204 18.286 21.0489 18L19.7584 15.8491C19.2747 15.0423 18.3897 14.5411 17.4488 14.5411H7.45368C6.51278 14.5411 5.62777 15.0423 5.14407 15.8489L3.85318 18.0002C3.6819 18.286 3.36833 18.4635 3.03416 18.4635C1.99294 18.4635 1.22141 17.4906 1.46021 16.4759L3.13582 9.35383C3.51844 7.72762 4.95219 6.5918 6.62265 6.5918H18.2798C19.9501 6.5918 21.384 7.72762 21.7664 9.35383L23.4422 16.4759C23.6807 17.49 22.9107 18.4635 21.8671 18.4635V18.4635Z" fill="#636363"/>
</g>
<defs>
<clipPath id="clip0_1914_710">
<rect width="25" height="25" fill="white"/>
</clipPath>
</defs>
</svg>
