<svg width="38" height="38" viewBox="0 0 38 38" fill="none" xmlns="http://www.w3.org/2000/svg">
<path d="M26.2069 0.000121349C29.3346 0.000121349 32.3342 1.28698 34.5458 3.5776C36.7575 5.86822 38 8.97497 38 12.2144H35.3793C35.3793 9.69484 34.4129 7.27848 32.6927 5.49689C30.9726 3.71529 28.6395 2.7144 26.2069 2.7144V0.000121349Z" fill="white"/>
<path d="M37.9999 25.7857C37.9999 29.0252 36.7574 32.1319 34.5458 34.4225C32.3341 36.7132 29.3345 38 26.2068 38V35.2857C28.6395 35.2857 30.9725 34.2848 32.6926 32.5033C34.4128 30.7217 35.3792 28.3053 35.3792 25.7857H37.9999Z" fill="white"/>
<path d="M11.7931 38C8.66541 38 5.66579 36.7131 3.45416 34.4225C1.24252 32.1319 3.9739e-05 29.0251 4.00124e-05 25.7857H2.62073C2.62073 28.3053 3.5871 30.7216 5.30726 32.5032C7.02742 34.2848 9.36046 35.2857 11.7931 35.2857V38Z" fill="white"/>
<path d="M0 12.2142C-1.43348e-07 8.97482 1.24248 5.86807 3.45412 3.57745C5.66575 1.28683 8.66537 -3.03825e-05 11.7931 -3.05176e-05V2.71425C9.36042 2.71425 7.02738 3.71514 5.30722 5.49674C3.58706 7.27833 2.62069 9.69469 2.62069 12.2142H0Z" fill="white"/>
<path fill-rule="evenodd" clip-rule="evenodd" d="M15.5385 11.6364H12.5175C12.0309 11.6364 11.6364 12.0309 11.6364 12.5175V15.5385C11.6364 16.0251 12.0309 16.4196 12.5175 16.4196H15.5385C16.0251 16.4196 16.4196 16.0251 16.4196 15.5385V12.5175C16.4196 12.0309 16.0251 11.6364 15.5385 11.6364ZM12.5175 10C11.1271 10 10 11.1271 10 12.5175V15.5385C10 16.9288 11.1271 18.0559 12.5175 18.0559H15.5385C16.9288 18.0559 18.0559 16.9288 18.0559 15.5385V12.5175C18.0559 11.1271 16.9288 10 15.5385 10H12.5175Z" fill="white"/>
<path fill-rule="evenodd" clip-rule="evenodd" d="M15.5385 21.5804H12.5175C12.0309 21.5804 11.6364 21.9749 11.6364 22.4615V25.4825C11.6364 25.9691 12.0309 26.3636 12.5175 26.3636H15.5385C16.0251 26.3636 16.4196 25.9691 16.4196 25.4825V22.4615C16.4196 21.9749 16.0251 21.5804 15.5385 21.5804ZM12.5175 19.9441C11.1271 19.9441 10 21.0712 10 22.4615V25.4825C10 26.8729 11.1271 28 12.5175 28H15.5385C16.9288 28 18.0559 26.8729 18.0559 25.4825V22.4615C18.0559 21.0712 16.9288 19.9441 15.5385 19.9441H12.5175Z" fill="white"/>
<path fill-rule="evenodd" clip-rule="evenodd" d="M25.4825 11.6364H22.4615C21.9749 11.6364 21.5804 12.0309 21.5804 12.5175V15.5385C21.5804 16.0251 21.9749 16.4196 22.4615 16.4196H25.4825C25.9691 16.4196 26.3636 16.0251 26.3636 15.5385V12.5175C26.3636 12.0309 25.9691 11.6364 25.4825 11.6364ZM22.4615 10C21.0712 10 19.9441 11.1271 19.9441 12.5175V15.5385C19.9441 16.9288 21.0712 18.0559 22.4615 18.0559H25.4825C26.8729 18.0559 28 16.9288 28 15.5385V12.5175C28 11.1271 26.8729 10 25.4825 10H22.4615Z" fill="white"/>
<path d="M13.1469 13.1468H15.035V15.035H13.1469V13.1468Z" fill="white"/>
<path d="M13.1469 23.0909H15.035V24.979H13.1469V23.0909Z" fill="white"/>
<path d="M19.9441 19.9441H22.7133V22.7133H19.9441V19.9441Z" fill="white"/>
<path d="M19.9441 25.2308H22.7133V28H19.9441V25.2308Z" fill="white"/>
<path d="M25.2308 19.9441H28V22.7133H25.2308V19.9441Z" fill="white"/>
<path d="M25.2308 25.2308H28V28H25.2308V25.2308Z" fill="white"/>
<path d="M22.7133 22.7133H25.2308V25.2308H22.7133V22.7133Z" fill="white"/>
<path d="M23.0909 13.1468H24.979V15.035H23.0909V13.1468Z" fill="white"/>
</svg>
