<svg width="15" height="20" viewBox="0 0 15 20" fill="none" xmlns="http://www.w3.org/2000/svg">
<path d="M0.75 14.4385C0.75 14.3128 0.804612 14.0714 0.985278 13.8707C1.14433 13.694 1.46491 13.4773 2.13904 13.4773H13.262C13.3027 13.4773 13.4311 13.5015 13.5448 13.6106C13.6394 13.7014 13.7955 13.9201 13.7955 14.4385C13.7955 15.1891 13.6051 16.3782 12.7479 17.3707C11.9105 18.3404 10.3255 19.25 7.27273 19.25C2.51999 19.25 0.75 16.1308 0.75 14.4385ZM11.9773 5.45455C11.9773 8.05279 9.87098 10.1591 7.27273 10.1591C4.67448 10.1591 2.56818 8.05279 2.56818 5.45455C2.56818 2.8563 4.67448 0.75 7.27273 0.75C9.87098 0.75 11.9773 2.8563 11.9773 5.45455Z" stroke="#225196" stroke-width="1.5"/>
</svg>
