<svg width="21" height="20" viewBox="0 0 21 20" fill="none" xmlns="http://www.w3.org/2000/svg">
<path d="M10.4901 0L0 9.10982L1.07384 10.3463L2.05593 9.49344V17.5434C2.05593 18.898 3.15792 20 4.5125 20H9.09806V11.9753H11.964V20H16.4677C17.8222 20 18.9243 18.898 18.9243 17.5434V9.49348L19.9064 10.3464L20.9802 9.10986L10.4901 0ZM17.2866 17.5434C17.2866 17.995 16.9192 18.3623 16.4677 18.3623H13.6017V10.3376H7.46033V18.3623H4.51246C4.06093 18.3623 3.69362 17.995 3.69362 17.5435V8.07126L10.4901 2.16907L17.2866 8.07126V17.5434Z" fill="#225196"/>
</svg>
