<svg width="18" height="20" viewBox="0 0 18 20" fill="none" xmlns="http://www.w3.org/2000/svg">
<path d="M16.0721 15.0419C15.8342 14.4489 15.7142 13.824 15.7142 13.185V8.57145C15.7142 5.3711 13.5842 2.68741 10.6778 1.78198C10.5051 0.772449 9.62952 0 8.57141 0C7.51331 0 6.63774 0.772449 6.46501 1.78198C3.55861 2.68741 1.42859 5.3711 1.42859 8.57145V13.185C1.42859 13.824 1.30861 14.4489 1.07075 15.0419L0.0509062 17.5921C-0.0370069 17.8125 -0.00978227 18.0608 0.122732 18.2575C0.255968 18.4542 0.477066 18.5714 0.714251 18.5714H6.14403C6.65047 19.4322 7.55379 20 8.57141 20C9.58904 20 10.4924 19.4322 10.9988 18.5714H16.4285C16.6657 18.5714 16.8868 18.4542 17.02 18.2575C17.1526 18.0608 17.1798 17.8125 17.0919 17.5921C17.0919 17.5921 16.0721 15.0419 16.0721 15.0419ZM1.76895 17.1428L2.39744 15.572C2.70227 14.8102 2.85711 14.0067 2.85711 13.185V8.5714C2.85711 5.41988 5.42057 2.8571 8.57141 2.8571C11.7223 2.8571 14.2857 5.41988 14.2857 8.5714V13.185C14.2857 14.0066 14.4405 14.8102 14.7453 15.572L15.3738 17.1428H1.76895Z" fill="#225196"/>
</svg>
