<svg width="14" height="14" viewBox="0 0 14 14" fill="none" xmlns="http://www.w3.org/2000/svg">
<path d="M9.30138 7.38359C7.76556 7.38359 6.52055 6.13857 6.52055 4.60276C6.52055 3.06697 7.76556 1.82193 9.30138 1.82193C10.8372 1.82193 12.0822 3.06695 12.0822 4.60276C12.0822 6.13857 10.8372 7.38359 9.30138 7.38359ZM7.98448 5.70197C8.11099 6.12023 8.65289 6.43466 9.30234 6.43466C9.95178 6.43466 10.4937 6.12023 10.6202 5.70197H7.98448ZM0 8.53818V9.26776C0 9.37589 0.079608 9.50157 0.178409 9.54554C0.561281 9.71589 1.60563 10.0646 3.73972 10.0646C3.84195 10.0646 3.9394 10.0631 4.03667 10.0616C4.13037 8.51603 5.30293 7.2432 6.85245 7.03357C6.51885 6.69935 6.0773 6.47279 5.58492 6.41647C5.55265 6.41279 5.50479 6.4266 5.47848 6.44563C4.98876 6.80019 4.38921 7.01179 3.73972 7.01179C3.09025 7.01179 2.4907 6.80019 2.00097 6.44563C1.97466 6.42658 1.92681 6.41276 1.89453 6.41647C0.832405 6.53794 0 7.44492 0 8.53818ZM4.60275 10.2603V11.1769C4.60275 11.3128 4.70276 11.4707 4.82689 11.5259C5.30794 11.7399 6.62008 12.1781 9.30138 12.1781C11.9827 12.1781 13.2948 11.7399 13.7759 11.5259C13.9 11.4707 14 11.3128 14 11.1769V10.2603C14 8.88669 12.9542 7.74716 11.6197 7.59453C11.5791 7.58988 11.519 7.60727 11.4859 7.63122C10.8707 8.07663 10.1174 8.34252 9.30138 8.34252C8.4854 8.34252 7.73209 8.07663 7.11678 7.63122C7.08373 7.60727 7.02358 7.58988 6.98305 7.59453C5.64857 7.74718 4.60275 8.88669 4.60275 10.2603ZM3.73972 1.82195C4.96211 1.82195 5.95304 2.81289 5.95304 4.03526C5.95304 5.25765 4.96211 6.24854 3.73972 6.24854C2.51735 6.24854 1.52641 5.2576 1.52641 4.03526C1.52643 2.81286 2.51735 1.82195 3.73972 1.82195ZM3.73972 5.47254C4.27279 5.47254 4.71754 5.21446 4.82138 4.87116H2.65808C2.76189 5.21448 3.20669 5.47254 3.73972 5.47254Z" fill="#27AE60"/>
</svg>
